<?xml version="1.0" encoding="UTF-8" standalone="no"?>
<!DOCTYPE svg PUBLIC "-//W3C//DTD SVG 1.1//EN" "http://www.w3.org/Graphics/SVG/1.1/DTD/svg11.dtd">
<!-- Generated by graphviz version 2.40.1 (20161225.0304)
 -->
<!-- Title: TD Pages: 1 -->
<svg xmlns="http://www.w3.org/2000/svg" xmlns:xlink="http://www.w3.org/1999/xlink" width="1175pt" height="667pt" viewBox="0.00 0.00 1174.50 666.90">
  <g id="graph0" class="graph" transform="scale(1 1) rotate(0) translate(4 662.9)">
    <title>TD</title>
    <g id="a_graph0">
      <a xlink:title="Click the boxes for further information">
        <polygon fill="#ffffff" stroke="transparent" points="-4,4 -4,-662.9 1170.5,-662.9 1170.5,4 -4,4"/>
      </a>
    </g>
    <!-- 3&#45;&gt;4 -->
    <!-- 3&#45;&gt;5 -->
    <!-- 4&#45;&gt;5 -->
    <g id="edge3" class="edge">
      <title>4-&gt;5</title>
      <path fill="none" stroke="#000000" d="M302.821,-540C311.202,-540 319.6641,-540 328.0915,-540"/>
      <polygon fill="#000000" stroke="#000000" points="328.346,-543.5001 338.346,-540 328.3459,-536.5001 328.346,-543.5001"/>
    </g>
    <!-- 4&#45;&gt;6 -->
    <g id="edge4" class="edge">
      <title>4-&gt;6</title>
      <path fill="none" stroke="#000000" d="M176.5,-494.8326C176.5,-471.9002 176.5,-444.7298 176.5,-424.6866"/>
      <polygon fill="#000000" stroke="#000000" points="180.0001,-424.6364 176.5,-414.6364 173.0001,-424.6365 180.0001,-424.6364"/>
    </g>
    <!-- 5&#45;&gt;7 -->
    <!-- 6&#45;&gt;7 -->
    <g id="edge5" class="edge">
      <title>6-&gt;7</title>
      <path fill="none" stroke="#000000" d="M302.821,-396C311.202,-396 319.6641,-396 328.0915,-396"/>
      <polygon fill="#000000" stroke="#000000" points="328.346,-399.5001 338.346,-396 328.3459,-392.5001 328.346,-399.5001"/>
    </g>
    <!-- 6&#45;&gt;8 -->
    <g id="edge6" class="edge">
      <title>6-&gt;8</title>
      <path fill="none" stroke="#000000" d="M176.5,-377.4582C176.5,-369.9583 176.5,-361.1245 176.5,-352.8217"/>
      <polygon fill="#000000" stroke="#000000" points="180.0001,-352.7292 176.5,-342.7292 173.0001,-352.7292 180.0001,-352.7292"/>
    </g>
    <!-- 7&#45;&gt;9 -->
    <!-- 8&#45;&gt;9 -->
    <g id="edge7" class="edge">
      <title>8-&gt;9</title>
      <path fill="none" stroke="#000000" d="M302.821,-324C311.202,-324 319.6641,-324 328.0915,-324"/>
      <polygon fill="#000000" stroke="#000000" points="328.346,-327.5001 338.346,-324 328.3459,-320.5001 328.346,-327.5001"/>
    </g>
    <!-- 8&#45;&gt;10 -->
    <g id="edge8" class="edge">
      <title>8-&gt;10</title>
      <path fill="none" stroke="#000000" d="M176.5,-305.3519C176.5,-292.9612 176.5,-276.4547 176.5,-262.4391"/>
      <polygon fill="#000000" stroke="#000000" points="180.0001,-262.3162 176.5,-252.3162 173.0001,-262.3163 180.0001,-262.3162"/>
    </g>
    <!-- 9&#45;&gt;11 -->
    <!-- 10&#45;&gt;12 -->
    <g id="edge10" class="edge">
      <title>10-&gt;12</title>
      <path fill="none" stroke="#000000" d="M176.5,-215.4693C176.5,-195.5319 176.5,-163.0631 176.5,-136.1504"/>
      <polygon fill="#000000" stroke="#000000" points="180.0001,-136.1456 176.5,-126.1456 173.0001,-136.1456 180.0001,-136.1456"/>
    </g>
    <!-- 10&#45;&gt;C -->
    <g id="edge9" class="edge">
      <title>10-&gt;C</title>
      <path fill="none" stroke="#000000" d="M302.821,-234C311.202,-234 319.6641,-234 328.0915,-234"/>
      <polygon fill="#000000" stroke="#000000" points="328.346,-237.5001 338.346,-234 328.3459,-230.5001 328.346,-237.5001"/>
    </g>
    <!-- 13&#45;&gt;14 -->
    <g id="edge15" class="edge">
      <title>13-&gt;14</title>
      <path fill="none" stroke="#ffffff" d="M876.4774,-629.8836C857.3893,-616.0447 827.8649,-594.6395 802.4159,-576.189"/>
    </g>
    <!-- 14&#45;&gt;15 -->
    <g id="edge16" class="edge">
      <title>14-&gt;15</title>
      <path fill="none" stroke="#000000" d="M752.5,-503.8465C752.5,-461.2531 752.5,-391.3742 752.5,-352.4476"/>
      <polygon fill="#000000" stroke="#000000" points="756.0001,-352.3374 752.5,-342.3374 749.0001,-352.3374 756.0001,-352.3374"/>
    </g>
    <!-- 15&#45;&gt;16 -->
    <g id="edge17" class="edge">
      <title>15-&gt;16</title>
      <path fill="none" stroke="#000000" d="M878.821,-324C887.202,-324 895.6641,-324 904.0915,-324"/>
      <polygon fill="#000000" stroke="#000000" points="904.346,-327.5001 914.346,-324 904.3459,-320.5001 904.346,-327.5001"/>
    </g>
    <!-- 15&#45;&gt;17 -->
    <g id="edge18" class="edge">
      <title>15-&gt;17</title>
      <path fill="none" stroke="#000000" d="M752.5,-305.3519C752.5,-292.9612 752.5,-276.4547 752.5,-262.4391"/>
      <polygon fill="#000000" stroke="#000000" points="756.0001,-262.3162 752.5,-252.3162 749.0001,-262.3163 756.0001,-262.3162"/>
    </g>
    <!-- 16&#45;&gt;18 -->
    <!-- 17&#45;&gt;18 -->
    <g id="edge19" class="edge">
      <title>17-&gt;18</title>
      <path fill="none" stroke="#000000" d="M878.821,-234C887.202,-234 895.6641,-234 904.0915,-234"/>
      <polygon fill="#000000" stroke="#000000" points="904.346,-237.5001 914.346,-234 904.3459,-230.5001 904.346,-237.5001"/>
    </g>
    <!-- 17&#45;&gt;B -->
    <g id="edge20" class="edge">
      <title>17-&gt;B</title>
      <path fill="none" stroke="#000000" d="M752.5,-215.4693C752.5,-178.4003 752.5,-98.0118 752.5,-90.5569"/>
    </g>
    <!-- B&#45;&gt;12 -->
    <g id="edge21" class="edge">
      <title>B-&gt;12</title>
      <path fill="none" stroke="#000000" d="M751.8494,-90C737.2012,-90 478.5171,-90 313.0507,-90"/>
      <polygon fill="#000000" stroke="#000000" points="312.7833,-86.5001 302.7832,-90 312.7832,-93.5001 312.7833,-86.5001"/>
    </g>
    <!-- identification -->
    <g id="node1" class="node">
      <title>identification</title>
      <g id="a_node1">
        <a xlink:title="Blue identification box">
          <path fill="#bcd2ee" stroke="#bcd2ee" d="M19.3333,-612C19.3333,-612 9.6667,-612 9.6667,-612 4.8333,-612 0,-607.1667 0,-602.3333 0,-602.3333 0,-477.6667 0,-477.6667 0,-472.8333 4.8333,-468 9.6667,-468 9.6667,-468 19.3333,-468 19.3333,-468 24.1667,-468 29,-472.8333 29,-477.6667 29,-477.6667 29,-602.3333 29,-602.3333 29,-607.1667 24.1667,-612 19.3333,-612"/>
          <text text-anchor="middle" x="536.4" y="16.5" font-family="Helvetica,sans-Serif" font-size="12.00" fill="#000000" transform="rotate(-90)">IDENTIFICAÇÃO</text>
        </a>
      </g>
    </g>
    <!-- screening -->
    <g id="node2" class="node">
      <title>screening</title>
      <g id="a_node2">
        <a xlink:title="Blue screening box">
          <path fill="#bcd2ee" stroke="#bcd2ee" d="M19.3333,-414C19.3333,-414 9.6667,-414 9.6667,-414 4.8333,-414 0,-409.1667 0,-404.3333 0,-404.3333 0,-207.6667 0,-207.6667 0,-202.8333 4.8333,-198 9.6667,-198 9.6667,-198 19.3333,-198 19.3333,-198 24.1667,-198 29,-202.8333 29,-207.6667 29,-207.6667 29,-404.3333 29,-404.3333 29,-409.1667 24.1667,-414 19.3333,-414"/>
          <text text-anchor="middle" x="302.4" y="16.5" font-family="Helvetica,sans-Serif" font-size="12.00" fill="#000000" transform="rotate(-90)">TRIAGEM</text>
        </a>
      </g>
    </g>
    <!-- included -->
    <g id="node3" class="node">
      <title>included</title>
      <g id="a_node3">
        <a xlink:title="Blue included box">
          <path fill="#bcd2ee" stroke="#bcd2ee" d="M19.3333,-180C19.3333,-180 9.6667,-180 9.6667,-180 4.8333,-180 0,-175.1667 0,-170.3333 0,-170.3333 0,-9.6667 0,-9.6667 0,-4.8333 4.8333,0 9.6667,0 9.6667,0 19.3333,0 19.3333,0 24.1667,0 29,-4.8333 29,-9.6667 29,-9.6667 29,-170.3333 29,-170.3333 29,-175.1667 24.1667,-180 19.3333,-180"/>
          <text text-anchor="middle" x="86.4" y="16.5" font-family="Helvetica,sans-Serif" font-size="12.00" fill="#000000" transform="rotate(-90)">INCLUSÃO</text>
        </a>
      </g>
    </g>
    <!-- 3 -->
    <g id="node4" class="node">
      <title>3</title>
      <g id="a_node4">
        <a xlink:title="Yellow title box; Identification of new studies via databases and registers">
          <path fill="#ffc125" stroke="#ffc125" d="M580.8333,-658.9C580.8333,-658.9 60.1667,-658.9 60.1667,-658.9 55.3333,-658.9 50.5,-654.0667 50.5,-649.2333 50.5,-649.2333 50.5,-639.5667 50.5,-639.5667 50.5,-634.7333 55.3333,-629.9 60.1667,-629.9 60.1667,-629.9 580.8333,-629.9 580.8333,-629.9 585.6667,-629.9 590.5,-634.7333 590.5,-639.5667 590.5,-639.5667 590.5,-649.2333 590.5,-649.2333 590.5,-654.0667 585.6667,-658.9 580.8333,-658.9"/>
          <text text-anchor="middle" x="320.5" y="-640.8" font-family="Helvetica,sans-Serif" font-size="12.00" fill="#000000">Identification of new studies via databases and registers</text>
        </a>
      </g>
    </g>
    <!-- 4 -->
    <g id="node5" class="node">
      <title>4</title>
      <g id="a_node5">
        <a xlink:title="Records identified from: Databases and Registers">
          <polygon fill="none" stroke="#000000" points="302.5,-585 50.5,-585 50.5,-495 302.5,-495 302.5,-585"/>
          <text text-anchor="middle" x="176.5" y="-565.2" font-family="Helvetica,sans-Serif" font-size="12.00" fill="#000000">Records identified from:</text>
          <text text-anchor="middle" x="176.5" y="-550.8" font-family="Helvetica,sans-Serif" font-size="12.00" fill="#000000">Databases (n = 3,547):</text>
          <text text-anchor="middle" x="176.5" y="-536.4" font-family="Helvetica,sans-Serif" font-size="12.00" fill="#000000">Scopus (n = 2,145)</text>
          <text text-anchor="middle" x="176.5" y="-522" font-family="Helvetica,sans-Serif" font-size="12.00" fill="#000000">Web of Science (n = 1,402)</text>
          <text text-anchor="middle" x="176.5" y="-507.6" font-family="Helvetica,sans-Serif" font-size="12.00" fill="#000000">Registers (n = 245)</text>
        </a>
      </g>
    </g>
    <!-- 5 -->
    <g id="node6" class="node">
      <title>5</title>
      <g id="a_node6">
        <a xlink:title="Duplicate records">
          <polygon fill="none" stroke="#000000" points="590.5,-587.4009 338.5,-587.4009 338.5,-492.5991 590.5,-492.5991 590.5,-587.4009"/>
          <text text-anchor="middle" x="464.5" y="-572.4" font-family="Helvetica,sans-Serif" font-size="12.00" fill="#000000">Records removed before screening:</text>
          <text text-anchor="middle" x="464.5" y="-558" font-family="Helvetica,sans-Serif" font-size="12.00" fill="#000000">Duplicate records (n = 547)</text>
          <text text-anchor="middle" x="464.5" y="-543.6" font-family="Helvetica,sans-Serif" font-size="12.00" fill="#000000">Records marked as ineligible by automation</text>
          <text text-anchor="middle" x="464.5" y="-529.2" font-family="Helvetica,sans-Serif" font-size="12.00" fill="#000000">tools (n = 0)</text>
          <text text-anchor="middle" x="464.5" y="-514.8" font-family="Helvetica,sans-Serif" font-size="12.00" fill="#000000">Records removed for other reasons (n =</text>
          <text text-anchor="middle" x="464.5" y="-500.4" font-family="Helvetica,sans-Serif" font-size="12.00" fill="#000000">2,847)</text>
        </a>
      </g>
    </g>
    <!-- 6 -->
    <g id="node7" class="node">
      <title>6</title>
      <g id="a_node7">
        <a xlink:title="Records screened (databases and registers)">
          <polygon fill="none" stroke="#000000" points="302.5,-414.3005 50.5,-414.3005 50.5,-377.6995 302.5,-377.6995 302.5,-414.3005"/>
          <text text-anchor="middle" x="176.5" y="-399.6" font-family="Helvetica,sans-Serif" font-size="12.00" fill="#000000">Records screened</text>
          <text text-anchor="middle" x="176.5" y="-385.2" font-family="Helvetica,sans-Serif" font-size="12.00" fill="#000000">(n = 3,245)</text>
        </a>
      </g>
    </g>
    <!-- 7 -->
    <g id="node8" class="node">
      <title>7</title>
      <g id="a_node8">
        <a xlink:title="Records excluded (databases and registers)">
          <polygon fill="none" stroke="#000000" points="590.5,-414.3005 338.5,-414.3005 338.5,-377.6995 590.5,-377.6995 590.5,-414.3005"/>
          <text text-anchor="middle" x="464.5" y="-399.6" font-family="Helvetica,sans-Serif" font-size="12.00" fill="#000000">Records excluded</text>
          <text text-anchor="middle" x="464.5" y="-385.2" font-family="Helvetica,sans-Serif" font-size="12.00" fill="#000000">(n = 2,847)</text>
        </a>
      </g>
    </g>
    <!-- 8 -->
    <g id="node9" class="node">
      <title>8</title>
      <g id="a_node9">
        <a xlink:title="Reports sought for retrieval (databases and registers)">
          <polygon fill="none" stroke="#000000" points="302.5,-342.3005 50.5,-342.3005 50.5,-305.6995 302.5,-305.6995 302.5,-342.3005"/>
          <text text-anchor="middle" x="176.5" y="-327.6" font-family="Helvetica,sans-Serif" font-size="12.00" fill="#000000">Reports sought for retrieval</text>
          <text text-anchor="middle" x="176.5" y="-313.2" font-family="Helvetica,sans-Serif" font-size="12.00" fill="#000000">(n = 398)</text>
        </a>
      </g>
    </g>
    <!-- 9 -->
    <g id="node10" class="node">
      <title>9</title>
      <g id="a_node10">
        <a xlink:title="Reports not retrieved (databases and registers)">
          <polygon fill="none" stroke="#000000" points="590.5,-342.3005 338.5,-342.3005 338.5,-305.6995 590.5,-305.6995 590.5,-342.3005"/>
          <text text-anchor="middle" x="464.5" y="-327.6" font-family="Helvetica,sans-Serif" font-size="12.00" fill="#000000">Reports not retrieved</text>
          <text text-anchor="middle" x="464.5" y="-313.2" font-family="Helvetica,sans-Serif" font-size="12.00" fill="#000000">(n = 45)</text>
        </a>
      </g>
    </g>
    <!-- 10 -->
    <g id="node11" class="node">
      <title>10</title>
      <g id="a_node11">
        <a xlink:title="Reports assessed for eligibility (databases and registers)">
          <polygon fill="none" stroke="#000000" points="302.5,-252.3005 50.5,-252.3005 50.5,-215.6995 302.5,-215.6995 302.5,-252.3005"/>
          <text text-anchor="middle" x="176.5" y="-237.6" font-family="Helvetica,sans-Serif" font-size="12.00" fill="#000000">Reports assessed for eligibility</text>
          <text text-anchor="middle" x="176.5" y="-223.2" font-family="Helvetica,sans-Serif" font-size="12.00" fill="#000000">(n = 353)</text>
        </a>
      </g>
    </g>
    <!-- 11 -->
    <g id="node12" class="node">
      <title>11</title>
      <g id="a_node12">
        <a xlink:title="Reports excluded (databases and registers)">
          <polygon fill="#ffffff" stroke="#000000" points="590.5,-266.6012 338.5,-266.6012 338.5,-201.3988 590.5,-201.3988 590.5,-266.6012"/>
          <text text-anchor="middle" x="464.5" y="-252" font-family="Helvetica,sans-Serif" font-size="12.00" fill="#000000">Reports excluded:</text>
          <text text-anchor="middle" x="464.5" y="-237.6" font-family="Helvetica,sans-Serif" font-size="12.00" fill="#000000">Fora do escopo temático (n = 145)</text>
          <text text-anchor="middle" x="464.5" y="-223.2" font-family="Helvetica,sans-Serif" font-size="12.00" fill="#000000">Sem dados primários (n = 52)</text>
          <text text-anchor="middle" x="464.5" y="-208.8" font-family="Helvetica,sans-Serif" font-size="12.00" fill="#000000">Artigos não científicos (n = 33)</text>
        </a>
      </g>
    </g>
    <!-- 12 -->
    <g id="node13" class="node">
      <title>12</title>
      <g id="a_node13">
        <a xlink:title="New studies included in review">
          <polygon fill="none" stroke="#000000" points="302.5,-126 50.5,-126 50.5,-54 302.5,-54 302.5,-126"/>
          <text text-anchor="middle" x="176.5" y="-108" font-family="Helvetica,sans-Serif" font-size="12.00" fill="#000000">New studies included in review</text>
          <text text-anchor="middle" x="176.5" y="-93.6" font-family="Helvetica,sans-Serif" font-size="12.00" fill="#000000">(n = 123)</text>
          <text text-anchor="middle" x="176.5" y="-79.2" font-family="Helvetica,sans-Serif" font-size="12.00" fill="#000000">Reports of new included studies</text>
          <text text-anchor="middle" x="176.5" y="-64.8" font-family="Helvetica,sans-Serif" font-size="12.00" fill="#000000">(n = 123)</text>
        </a>
      </g>
    </g>
    <!-- 13 -->
    <g id="node14" class="node">
      <title>13</title>
      <g id="a_node14">
        <a xlink:title="Grey title box; Identification of new studies via other methods">
          <path fill="#dcdcdc" stroke="#dcdcdc" d="M1156.8333,-658.9C1156.8333,-658.9 636.1667,-658.9 636.1667,-658.9 631.3333,-658.9 626.5,-654.0667 626.5,-649.2333 626.5,-649.2333 626.5,-639.5667 626.5,-639.5667 626.5,-634.7333 631.3333,-629.9 636.1667,-629.9 636.1667,-629.9 1156.8333,-629.9 1156.8333,-629.9 1161.6667,-629.9 1166.5,-634.7333 1166.5,-639.5667 1166.5,-639.5667 1166.5,-649.2333 1166.5,-649.2333 1166.5,-654.0667 1161.6667,-658.9 1156.8333,-658.9"/>
          <text text-anchor="middle" x="896.5" y="-640.8" font-family="Helvetica,sans-Serif" font-size="12.00" fill="#000000">Identification of new studies via other methods</text>
        </a>
      </g>
    </g>
    <!-- 14 -->
    <g id="node15" class="node">
      <title>14</title>
      <g id="a_node15">
        <a xlink:title="Records identified from: Websites, Organisations and Citation Searching">
          <polygon fill="#dcdcdc" stroke="#dcdcdc" points="878.5,-576 626.5,-576 626.5,-504 878.5,-504 878.5,-576"/>
          <text text-anchor="middle" x="752.5" y="-558" font-family="Helvetica,sans-Serif" font-size="12.00" fill="#000000">Records identified from:</text>
          <text text-anchor="middle" x="752.5" y="-543.6" font-family="Helvetica,sans-Serif" font-size="12.00" fill="#000000">Websites (n = 0)</text>
          <text text-anchor="middle" x="752.5" y="-529.2" font-family="Helvetica,sans-Serif" font-size="12.00" fill="#000000">Organisations (n = 0)</text>
          <text text-anchor="middle" x="752.5" y="-514.8" font-family="Helvetica,sans-Serif" font-size="12.00" fill="#000000">Citation searching (n = 0)</text>
        </a>
      </g>
    </g>
    <!-- 15 -->
    <g id="node16" class="node">
      <title>15</title>
      <g id="a_node16">
        <a xlink:title="Reports sought for retrieval (other)">
          <polygon fill="#dcdcdc" stroke="#dcdcdc" points="878.5,-342.3005 626.5,-342.3005 626.5,-305.6995 878.5,-305.6995 878.5,-342.3005"/>
          <text text-anchor="middle" x="752.5" y="-327.6" font-family="Helvetica,sans-Serif" font-size="12.00" fill="#000000">Reports sought for retrieval</text>
          <text text-anchor="middle" x="752.5" y="-313.2" font-family="Helvetica,sans-Serif" font-size="12.00" fill="#000000">(n = 0)</text>
        </a>
      </g>
    </g>
    <!-- 16 -->
    <g id="node17" class="node">
      <title>16</title>
      <g id="a_node17">
        <a xlink:title="Reports not retrieved (other)">
          <polygon fill="#dcdcdc" stroke="#dcdcdc" points="1166.5,-342.3005 914.5,-342.3005 914.5,-305.6995 1166.5,-305.6995 1166.5,-342.3005"/>
          <text text-anchor="middle" x="1040.5" y="-327.6" font-family="Helvetica,sans-Serif" font-size="12.00" fill="#000000">Reports not retrieved</text>
          <text text-anchor="middle" x="1040.5" y="-313.2" font-family="Helvetica,sans-Serif" font-size="12.00" fill="#000000">(n = 0)</text>
        </a>
      </g>
    </g>
    <!-- 17 -->
    <g id="node18" class="node">
      <title>17</title>
      <g id="a_node18">
        <a xlink:title="Reports assessed for eligibility (other)">
          <polygon fill="#dcdcdc" stroke="#dcdcdc" points="878.5,-252.3005 626.5,-252.3005 626.5,-215.6995 878.5,-215.6995 878.5,-252.3005"/>
          <text text-anchor="middle" x="752.5" y="-237.6" font-family="Helvetica,sans-Serif" font-size="12.00" fill="#000000">Reports assessed for eligibility</text>
          <text text-anchor="middle" x="752.5" y="-223.2" font-family="Helvetica,sans-Serif" font-size="12.00" fill="#000000">(n = 0)</text>
        </a>
      </g>
    </g>
    <!-- 18 -->
    <g id="node19" class="node">
      <title>18</title>
      <g id="a_node19">
        <a xlink:title="Reports excluded (other)">
          <polygon fill="#dcdcdc" stroke="#dcdcdc" points="1166.5,-252.3005 914.5,-252.3005 914.5,-215.6995 1166.5,-215.6995 1166.5,-252.3005"/>
          <text text-anchor="middle" x="1040.5" y="-237.6" font-family="Helvetica,sans-Serif" font-size="12.00" fill="#000000">Reports excluded:</text>
          <text text-anchor="middle" x="1040.5" y="-223.2" font-family="Helvetica,sans-Serif" font-size="12.00" fill="#000000"> (n = NA)</text>
        </a>
      </g>
    </g>
    <!-- B -->
    <g id="node20" class="node">
      <title>B</title>
      <polygon fill="none" stroke="#ffffff" points="753,-90.5 752,-90.5 752,-89.5 753,-89.5 753,-90.5"/>
    </g>
    <!-- C -->
  </g>
</svg>
