<?xml version="1.0" encoding="UTF-8" standalone="no"?>
<!DOCTYPE svg PUBLIC "-//W3C//DTD SVG 1.1//EN" "http://www.w3.org/Graphics/SVG/1.1/DTD/svg11.dtd">
<!-- Generated by graphviz version 2.40.1 (20161225.0304)
 -->
<!-- Title: TD Pages: 1 -->
<svg xmlns="http://www.w3.org/2000/svg" xmlns:xlink="http://www.w3.org/1999/xlink" width="1175pt" height="649pt" viewBox="0.00 0.00 1174.50 648.90">
  <g id="graph0" class="graph" transform="scale(1 1) rotate(0) translate(4 644.9)">
    <title>TD</title>
    <g id="a_graph0">
      <a xlink:title="Click the boxes for further information">
        <polygon fill="#ffffff" stroke="transparent" points="-4,4 -4,-644.9 1170.5,-644.9 1170.5,4 -4,4"/>
      </a>
    </g>
    <!-- 3&#45;&gt;4 -->
    <!-- 3&#45;&gt;5 -->
    <!-- 4&#45;&gt;5 -->
    <g id="edge3" class="edge">
      <title>4-&gt;5</title>
      <path fill="none" stroke="#000000" d="M302.821,-522C311.202,-522 319.6641,-522 328.0915,-522"/>
      <polygon fill="#000000" stroke="#000000" points="328.346,-525.5001 338.346,-522 328.3459,-518.5001 328.346,-525.5001"/>
    </g>
    <!-- 4&#45;&gt;6 -->
    <g id="edge4" class="edge">
      <title>4-&gt;6</title>
      <path fill="none" stroke="#000000" d="M176.5,-476.8326C176.5,-453.9002 176.5,-426.7298 176.5,-406.6866"/>
      <polygon fill="#000000" stroke="#000000" points="180.0001,-406.6364 176.5,-396.6364 173.0001,-406.6364 180.0001,-406.6364"/>
    </g>
    <!-- 5&#45;&gt;7 -->
    <!-- 6&#45;&gt;7 -->
    <g id="edge5" class="edge">
      <title>6-&gt;7</title>
      <path fill="none" stroke="#000000" d="M302.821,-378C311.202,-378 319.6641,-378 328.0915,-378"/>
      <polygon fill="#000000" stroke="#000000" points="328.346,-381.5001 338.346,-378 328.3459,-374.5001 328.346,-381.5001"/>
    </g>
    <!-- 6&#45;&gt;8 -->
    <g id="edge6" class="edge">
      <title>6-&gt;8</title>
      <path fill="none" stroke="#000000" d="M176.5,-359.4582C176.5,-351.9583 176.5,-343.1245 176.5,-334.8217"/>
      <polygon fill="#000000" stroke="#000000" points="180.0001,-334.7292 176.5,-324.7292 173.0001,-334.7292 180.0001,-334.7292"/>
    </g>
    <!-- 7&#45;&gt;9 -->
    <!-- 8&#45;&gt;9 -->
    <g id="edge7" class="edge">
      <title>8-&gt;9</title>
      <path fill="none" stroke="#000000" d="M302.821,-306C311.202,-306 319.6641,-306 328.0915,-306"/>
      <polygon fill="#000000" stroke="#000000" points="328.346,-309.5001 338.346,-306 328.3459,-302.5001 328.346,-309.5001"/>
    </g>
    <!-- 8&#45;&gt;10 -->
    <g id="edge8" class="edge">
      <title>8-&gt;10</title>
      <path fill="none" stroke="#000000" d="M176.5,-287.6198C176.5,-277.5742 176.5,-264.9094 176.5,-253.6023"/>
      <polygon fill="#000000" stroke="#000000" points="180.0001,-253.3074 176.5,-243.3074 173.0001,-253.3074 180.0001,-253.3074"/>
    </g>
    <!-- 9&#45;&gt;11 -->
    <!-- 10&#45;&gt;12 -->
    <g id="edge10" class="edge">
      <title>10-&gt;12</title>
      <path fill="none" stroke="#000000" d="M176.5,-206.5119C176.5,-188.5037 176.5,-160.3978 176.5,-136.3026"/>
      <polygon fill="#000000" stroke="#000000" points="180.0001,-136.2628 176.5,-126.2628 173.0001,-136.2628 180.0001,-136.2628"/>
    </g>
    <!-- 10&#45;&gt;C -->
    <g id="edge9" class="edge">
      <title>10-&gt;C</title>
      <path fill="none" stroke="#000000" d="M302.821,-225C311.202,-225 319.6641,-225 328.0915,-225"/>
      <polygon fill="#000000" stroke="#000000" points="328.346,-228.5001 338.346,-225 328.3459,-221.5001 328.346,-228.5001"/>
    </g>
    <!-- 13&#45;&gt;14 -->
    <g id="edge15" class="edge">
      <title>13-&gt;14</title>
      <path fill="none" stroke="#ffffff" d="M876.4774,-611.8836C857.3893,-598.0447 827.8649,-576.6395 802.4159,-558.189"/>
    </g>
    <!-- 14&#45;&gt;15 -->
    <g id="edge16" class="edge">
      <title>14-&gt;15</title>
      <path fill="none" stroke="#000000" d="M752.5,-485.8465C752.5,-443.2531 752.5,-373.3742 752.5,-334.4475"/>
      <polygon fill="#000000" stroke="#000000" points="756.0001,-334.3374 752.5,-324.3374 749.0001,-334.3374 756.0001,-334.3374"/>
    </g>
    <!-- 15&#45;&gt;16 -->
    <g id="edge17" class="edge">
      <title>15-&gt;16</title>
      <path fill="none" stroke="#000000" d="M878.821,-306C887.202,-306 895.6641,-306 904.0915,-306"/>
      <polygon fill="#000000" stroke="#000000" points="904.346,-309.5001 914.346,-306 904.3459,-302.5001 904.346,-309.5001"/>
    </g>
    <!-- 15&#45;&gt;17 -->
    <g id="edge18" class="edge">
      <title>15-&gt;17</title>
      <path fill="none" stroke="#000000" d="M752.5,-287.6198C752.5,-277.5742 752.5,-264.9094 752.5,-253.6023"/>
      <polygon fill="#000000" stroke="#000000" points="756.0001,-253.3074 752.5,-243.3074 749.0001,-253.3074 756.0001,-253.3074"/>
    </g>
    <!-- 16&#45;&gt;18 -->
    <!-- 17&#45;&gt;18 -->
    <g id="edge19" class="edge">
      <title>17-&gt;18</title>
      <path fill="none" stroke="#000000" d="M878.821,-225C887.202,-225 895.6641,-225 904.0915,-225"/>
      <polygon fill="#000000" stroke="#000000" points="904.346,-228.5001 914.346,-225 904.3459,-221.5001 904.346,-228.5001"/>
    </g>
    <!-- 17&#45;&gt;B -->
    <g id="edge20" class="edge">
      <title>17-&gt;B</title>
      <path fill="none" stroke="#000000" d="M752.5,-206.5119C752.5,-171.2719 752.5,-97.3632 752.5,-90.5117"/>
    </g>
    <!-- B&#45;&gt;12 -->
    <g id="edge21" class="edge">
      <title>B-&gt;12</title>
      <path fill="none" stroke="#000000" d="M751.8494,-90C737.2012,-90 478.5171,-90 313.0507,-90"/>
      <polygon fill="#000000" stroke="#000000" points="312.7833,-86.5001 302.7832,-90 312.7832,-93.5001 312.7833,-86.5001"/>
    </g>
    <!-- identification -->
    <g id="node1" class="node">
      <title>identification</title>
      <g id="a_node1">
        <a xlink:title="Caixa azul de identificação">
          <path fill="#bcd2ee" stroke="#bcd2ee" d="M19.3333,-594C19.3333,-594 9.6667,-594 9.6667,-594 4.8333,-594 0,-589.1667 0,-584.3333 0,-584.3333 0,-459.6667 0,-459.6667 0,-454.8333 4.8333,-450 9.6667,-450 9.6667,-450 19.3333,-450 19.3333,-450 24.1667,-450 29,-454.8333 29,-459.6667 29,-459.6667 29,-584.3333 29,-584.3333 29,-589.1667 24.1667,-594 19.3333,-594"/>
          <text text-anchor="middle" x="518.4" y="16.5" font-family="Helvetica,sans-Serif" font-size="12.00" fill="#000000" transform="rotate(-90)">IDENTIFICAÇÃO</text>
        </a>
      </g>
    </g>
    <!-- screening -->
    <g id="node2" class="node">
      <title>screening</title>
      <g id="a_node2">
        <a xlink:title="Caixa azul de triagem">
          <path fill="#bcd2ee" stroke="#bcd2ee" d="M19.3333,-396C19.3333,-396 9.6667,-396 9.6667,-396 4.8333,-396 0,-391.1667 0,-386.3333 0,-386.3333 0,-207.6667 0,-207.6667 0,-202.8333 4.8333,-198 9.6667,-198 9.6667,-198 19.3333,-198 19.3333,-198 24.1667,-198 29,-202.8333 29,-207.6667 29,-207.6667 29,-386.3333 29,-386.3333 29,-391.1667 24.1667,-396 19.3333,-396"/>
          <text text-anchor="middle" x="293.4" y="16.5" font-family="Helvetica,sans-Serif" font-size="12.00" fill="#000000" transform="rotate(-90)">TRIAGEM</text>
        </a>
      </g>
    </g>
    <!-- included -->
    <g id="node3" class="node">
      <title>included</title>
      <g id="a_node3">
        <a xlink:title="Caixa azul de inclusão">
          <path fill="#bcd2ee" stroke="#bcd2ee" d="M19.3333,-180C19.3333,-180 9.6667,-180 9.6667,-180 4.8333,-180 0,-175.1667 0,-170.3333 0,-170.3333 0,-9.6667 0,-9.6667 0,-4.8333 4.8333,0 9.6667,0 9.6667,0 19.3333,0 19.3333,0 24.1667,0 29,-4.8333 29,-9.6667 29,-9.6667 29,-170.3333 29,-170.3333 29,-175.1667 24.1667,-180 19.3333,-180"/>
          <text text-anchor="middle" x="86.4" y="16.5" font-family="Helvetica,sans-Serif" font-size="12.00" fill="#000000" transform="rotate(-90)">INCLUSÃO</text>
        </a>
      </g>
    </g>
    <!-- 3 -->
    <g id="node4" class="node">
      <title>3</title>
      <g id="a_node4">
        <a xlink:title="Caixa amarela; Identificação de novos estudos via bases de dados e registros">
          <path fill="#ffc125" stroke="#ffc125" d="M580.8333,-640.9C580.8333,-640.9 60.1667,-640.9 60.1667,-640.9 55.3333,-640.9 50.5,-636.0667 50.5,-631.2333 50.5,-631.2333 50.5,-621.5667 50.5,-621.5667 50.5,-616.7333 55.3333,-611.9 60.1667,-611.9 60.1667,-611.9 580.8333,-611.9 580.8333,-611.9 585.6667,-611.9 590.5,-616.7333 590.5,-621.5667 590.5,-621.5667 590.5,-631.2333 590.5,-631.2333 590.5,-636.0667 585.6667,-640.9 580.8333,-640.9"/>
          <text text-anchor="middle" x="320.5" y="-622.8" font-family="Helvetica,sans-Serif" font-size="12.00" fill="#000000">Identificação de novos estudos via bases de dados e registros</text>
        </a>
      </g>
    </g>
    <!-- 4 -->
    <g id="node5" class="node">
      <title>4</title>
      <g id="a_node5">
        <a xlink:title="Registros identificados de: Bases de dados e Registros">
          <polygon fill="none" stroke="#000000" points="302.5,-567 50.5,-567 50.5,-477 302.5,-477 302.5,-567"/>
          <text text-anchor="middle" x="176.5" y="-547.2" font-family="Helvetica,sans-Serif" font-size="12.00" fill="#000000">Records identified from:</text>
          <text text-anchor="middle" x="176.5" y="-532.8" font-family="Helvetica,sans-Serif" font-size="12.00" fill="#000000">Bases de dados (n = 272):</text>
          <text text-anchor="middle" x="176.5" y="-518.4" font-family="Helvetica,sans-Serif" font-size="12.00" fill="#000000">Scopus (n = 140)</text>
          <text text-anchor="middle" x="176.5" y="-504" font-family="Helvetica,sans-Serif" font-size="12.00" fill="#000000">Web of Science (n = 132)</text>
          <text text-anchor="middle" x="176.5" y="-489.6" font-family="Helvetica,sans-Serif" font-size="12.00" fill="#000000">Registros (n = 0)</text>
        </a>
      </g>
    </g>
    <!-- 5 -->
    <g id="node6" class="node">
      <title>5</title>
      <g id="a_node6">
        <a xlink:title="Registros duplicados">
          <polygon fill="none" stroke="#000000" points="590.5,-569.4009 338.5,-569.4009 338.5,-474.5991 590.5,-474.5991 590.5,-569.4009"/>
          <text text-anchor="middle" x="464.5" y="-554.4" font-family="Helvetica,sans-Serif" font-size="12.00" fill="#000000">Records removed before screening:</text>
          <text text-anchor="middle" x="464.5" y="-540" font-family="Helvetica,sans-Serif" font-size="12.00" fill="#000000">Registros duplicados (n = 0)</text>
          <text text-anchor="middle" x="464.5" y="-525.6" font-family="Helvetica,sans-Serif" font-size="12.00" fill="#000000">Registros marcados como inelegíveis por</text>
          <text text-anchor="middle" x="464.5" y="-511.2" font-family="Helvetica,sans-Serif" font-size="12.00" fill="#000000">ferramentas automatizadas (n = 38)</text>
          <text text-anchor="middle" x="464.5" y="-496.8" font-family="Helvetica,sans-Serif" font-size="12.00" fill="#000000">Registros removidos por outros motivos (n</text>
          <text text-anchor="middle" x="464.5" y="-482.4" font-family="Helvetica,sans-Serif" font-size="12.00" fill="#000000">= 86)</text>
        </a>
      </g>
    </g>
    <!-- 6 -->
    <g id="node7" class="node">
      <title>6</title>
      <g id="a_node7">
        <a xlink:title="Registros triados (bases de dados e registros)">
          <polygon fill="none" stroke="#000000" points="302.5,-396.3005 50.5,-396.3005 50.5,-359.6995 302.5,-359.6995 302.5,-396.3005"/>
          <text text-anchor="middle" x="176.5" y="-381.6" font-family="Helvetica,sans-Serif" font-size="12.00" fill="#000000">Registros triados</text>
          <text text-anchor="middle" x="176.5" y="-367.2" font-family="Helvetica,sans-Serif" font-size="12.00" fill="#000000">(n = 272)</text>
        </a>
      </g>
    </g>
    <!-- 7 -->
    <g id="node8" class="node">
      <title>7</title>
      <g id="a_node8">
        <a xlink:title="Registros excluídos (bases de dados e registros)">
          <polygon fill="none" stroke="#000000" points="590.5,-396.3005 338.5,-396.3005 338.5,-359.6995 590.5,-359.6995 590.5,-396.3005"/>
          <text text-anchor="middle" x="464.5" y="-381.6" font-family="Helvetica,sans-Serif" font-size="12.00" fill="#000000">Registros excluídos</text>
          <text text-anchor="middle" x="464.5" y="-367.2" font-family="Helvetica,sans-Serif" font-size="12.00" fill="#000000">(n = 124)</text>
        </a>
      </g>
    </g>
    <!-- 8 -->
    <g id="node9" class="node">
      <title>8</title>
      <g id="a_node9">
        <a xlink:title="Relatórios procurados para recuperação (bases de dados e registros)">
          <polygon fill="none" stroke="#000000" points="302.5,-324.3005 50.5,-324.3005 50.5,-287.6995 302.5,-287.6995 302.5,-324.3005"/>
          <text text-anchor="middle" x="176.5" y="-309.6" font-family="Helvetica,sans-Serif" font-size="12.00" fill="#000000">Relatórios procurados para recuperação</text>
          <text text-anchor="middle" x="176.5" y="-295.2" font-family="Helvetica,sans-Serif" font-size="12.00" fill="#000000">(n = 272)</text>
        </a>
      </g>
    </g>
    <!-- 9 -->
    <g id="node10" class="node">
      <title>9</title>
      <g id="a_node10">
        <a xlink:title="Relatórios não recuperados (bases de dados e registros)">
          <polygon fill="none" stroke="#000000" points="590.5,-324.3005 338.5,-324.3005 338.5,-287.6995 590.5,-287.6995 590.5,-324.3005"/>
          <text text-anchor="middle" x="464.5" y="-309.6" font-family="Helvetica,sans-Serif" font-size="12.00" fill="#000000">Relatórios não recuperados</text>
          <text text-anchor="middle" x="464.5" y="-295.2" font-family="Helvetica,sans-Serif" font-size="12.00" fill="#000000">(n = 0)</text>
        </a>
      </g>
    </g>
    <!-- 10 -->
    <g id="node11" class="node">
      <title>10</title>
      <g id="a_node11">
        <a xlink:title="Relatórios avaliados para elegibilidade (bases de dados e registros)">
          <polygon fill="none" stroke="#000000" points="302.5,-243.3005 50.5,-243.3005 50.5,-206.6995 302.5,-206.6995 302.5,-243.3005"/>
          <text text-anchor="middle" x="176.5" y="-228.6" font-family="Helvetica,sans-Serif" font-size="12.00" fill="#000000">Relatórios avaliados para elegibilidade</text>
          <text text-anchor="middle" x="176.5" y="-214.2" font-family="Helvetica,sans-Serif" font-size="12.00" fill="#000000">(n = 272)</text>
        </a>
      </g>
    </g>
    <!-- 11 -->
    <g id="node12" class="node">
      <title>11</title>
      <g id="a_node12">
        <a xlink:title="Relatórios excluídos (bases de dados e registros)">
          <polygon fill="#ffffff" stroke="#000000" points="590.5,-250.7004 338.5,-250.7004 338.5,-199.2996 590.5,-199.2996 590.5,-250.7004"/>
          <text text-anchor="middle" x="464.5" y="-235.8" font-family="Helvetica,sans-Serif" font-size="12.00" fill="#000000">Relatórios excluídos:</text>
          <text text-anchor="middle" x="464.5" y="-221.4" font-family="Helvetica,sans-Serif" font-size="12.00" fill="#000000">Baixa relevância (&lt; 20 pts) (n = 124)</text>
          <text text-anchor="middle" x="464.5" y="-207" font-family="Helvetica,sans-Serif" font-size="12.00" fill="#000000">Artigos excluídos (n = 0)</text>
        </a>
      </g>
    </g>
    <!-- 12 -->
    <g id="node13" class="node">
      <title>12</title>
      <g id="a_node13">
        <a xlink:title="Novos estudos incluídos na revisão">
          <polygon fill="none" stroke="#000000" points="302.5,-126 50.5,-126 50.5,-54 302.5,-54 302.5,-126"/>
          <text text-anchor="middle" x="176.5" y="-108" font-family="Helvetica,sans-Serif" font-size="12.00" fill="#000000">Novos estudos incluídos na revisão</text>
          <text text-anchor="middle" x="176.5" y="-93.6" font-family="Helvetica,sans-Serif" font-size="12.00" fill="#000000">(n = 148)</text>
          <text text-anchor="middle" x="176.5" y="-79.2" font-family="Helvetica,sans-Serif" font-size="12.00" fill="#000000">Relatórios de novos estudos incluídos</text>
          <text text-anchor="middle" x="176.5" y="-64.8" font-family="Helvetica,sans-Serif" font-size="12.00" fill="#000000">(n = 148)</text>
        </a>
      </g>
    </g>
    <!-- 13 -->
    <g id="node14" class="node">
      <title>13</title>
      <g id="a_node14">
        <a xlink:title="Caixa cinza; Identificação de novos estudos via outros métodos">
          <path fill="#dcdcdc" stroke="#dcdcdc" d="M1156.8333,-640.9C1156.8333,-640.9 636.1667,-640.9 636.1667,-640.9 631.3333,-640.9 626.5,-636.0667 626.5,-631.2333 626.5,-631.2333 626.5,-621.5667 626.5,-621.5667 626.5,-616.7333 631.3333,-611.9 636.1667,-611.9 636.1667,-611.9 1156.8333,-611.9 1156.8333,-611.9 1161.6667,-611.9 1166.5,-616.7333 1166.5,-621.5667 1166.5,-621.5667 1166.5,-631.2333 1166.5,-631.2333 1166.5,-636.0667 1161.6667,-640.9 1156.8333,-640.9"/>
          <text text-anchor="middle" x="896.5" y="-622.8" font-family="Helvetica,sans-Serif" font-size="12.00" fill="#000000">Identificação de novos estudos via outros métodos</text>
        </a>
      </g>
    </g>
    <!-- 14 -->
    <g id="node15" class="node">
      <title>14</title>
      <g id="a_node15">
        <a xlink:title="Registros identificados de: Sites web, Organizações e Busca por citações">
          <polygon fill="#dcdcdc" stroke="#dcdcdc" points="878.5,-558 626.5,-558 626.5,-486 878.5,-486 878.5,-558"/>
          <text text-anchor="middle" x="752.5" y="-540" font-family="Helvetica,sans-Serif" font-size="12.00" fill="#000000">Records identified from:</text>
          <text text-anchor="middle" x="752.5" y="-525.6" font-family="Helvetica,sans-Serif" font-size="12.00" fill="#000000">Sites web (n = 0)</text>
          <text text-anchor="middle" x="752.5" y="-511.2" font-family="Helvetica,sans-Serif" font-size="12.00" fill="#000000">Organizações (n = 0)</text>
          <text text-anchor="middle" x="752.5" y="-496.8" font-family="Helvetica,sans-Serif" font-size="12.00" fill="#000000">Busca por citações (n = 0)</text>
        </a>
      </g>
    </g>
    <!-- 15 -->
    <g id="node16" class="node">
      <title>15</title>
      <g id="a_node16">
        <a xlink:title="Relatórios procurados para recuperação (outros)">
          <polygon fill="#dcdcdc" stroke="#dcdcdc" points="878.5,-324.3005 626.5,-324.3005 626.5,-287.6995 878.5,-287.6995 878.5,-324.3005"/>
          <text text-anchor="middle" x="752.5" y="-309.6" font-family="Helvetica,sans-Serif" font-size="12.00" fill="#000000">Relatórios procurados para recuperação</text>
          <text text-anchor="middle" x="752.5" y="-295.2" font-family="Helvetica,sans-Serif" font-size="12.00" fill="#000000">(n = 0)</text>
        </a>
      </g>
    </g>
    <!-- 16 -->
    <g id="node17" class="node">
      <title>16</title>
      <g id="a_node17">
        <a xlink:title="Relatórios não recuperados (outros)">
          <polygon fill="#dcdcdc" stroke="#dcdcdc" points="1166.5,-324.3005 914.5,-324.3005 914.5,-287.6995 1166.5,-287.6995 1166.5,-324.3005"/>
          <text text-anchor="middle" x="1040.5" y="-309.6" font-family="Helvetica,sans-Serif" font-size="12.00" fill="#000000">Relatórios não recuperados</text>
          <text text-anchor="middle" x="1040.5" y="-295.2" font-family="Helvetica,sans-Serif" font-size="12.00" fill="#000000">(n = 0)</text>
        </a>
      </g>
    </g>
    <!-- 17 -->
    <g id="node18" class="node">
      <title>17</title>
      <g id="a_node18">
        <a xlink:title="Relatórios avaliados para elegibilidade (outros)">
          <polygon fill="#dcdcdc" stroke="#dcdcdc" points="878.5,-243.3005 626.5,-243.3005 626.5,-206.6995 878.5,-206.6995 878.5,-243.3005"/>
          <text text-anchor="middle" x="752.5" y="-228.6" font-family="Helvetica,sans-Serif" font-size="12.00" fill="#000000">Relatórios avaliados para elegibilidade</text>
          <text text-anchor="middle" x="752.5" y="-214.2" font-family="Helvetica,sans-Serif" font-size="12.00" fill="#000000">(n = 0)</text>
        </a>
      </g>
    </g>
    <!-- 18 -->
    <g id="node19" class="node">
      <title>18</title>
      <g id="a_node19">
        <a xlink:title="Relatórios excluídos (outros)">
          <polygon fill="#dcdcdc" stroke="#dcdcdc" points="1166.5,-243.3005 914.5,-243.3005 914.5,-206.6995 1166.5,-206.6995 1166.5,-243.3005"/>
          <text text-anchor="middle" x="1040.5" y="-228.6" font-family="Helvetica,sans-Serif" font-size="12.00" fill="#000000">Relatórios excluídos:</text>
          <text text-anchor="middle" x="1040.5" y="-214.2" font-family="Helvetica,sans-Serif" font-size="12.00" fill="#000000"> (n = NA)</text>
        </a>
      </g>
    </g>
    <!-- B -->
    <g id="node20" class="node">
      <title>B</title>
      <polygon fill="none" stroke="#ffffff" points="753,-90.5 752,-90.5 752,-89.5 753,-89.5 753,-90.5"/>
    </g>
    <!-- C -->
  </g>
</svg>
