<?xml version="1.0" encoding="UTF-8" standalone="no"?>
<!DOCTYPE svg PUBLIC "-//W3C//DTD SVG 1.1//EN" "http://www.w3.org/Graphics/SVG/1.1/DTD/svg11.dtd">
<!-- Generated by graphviz version 2.40.1 (20161225.0304)
 -->
<!-- Title: TD Pages: 1 -->
<svg xmlns="http://www.w3.org/2000/svg" xmlns:xlink="http://www.w3.org/1999/xlink" width="1175pt" height="649pt" viewBox="0.00 0.00 1174.50 648.90">
  <g id="graph0" class="graph" transform="scale(1 1) rotate(0) translate(4 644.9)">
    <title>TD</title>
    <g id="a_graph0">
      <a xlink:title="Click the boxes for further information">
        <polygon fill="#ffffff" stroke="transparent" points="-4,4 -4,-644.9 1170.5,-644.9 1170.5,4 -4,4"/>
      </a>
    </g>
    <!-- 3&#45;&gt;4 -->
    <!-- 3&#45;&gt;5 -->
    <!-- 4&#45;&gt;5 -->
    <g id="edge3" class="edge">
      <title>4-&gt;5</title>
      <path fill="none" stroke="#000000" d="M302.821,-531C311.202,-531 319.6641,-531 328.0915,-531"/>
      <polygon fill="#000000" stroke="#000000" points="328.346,-534.5001 338.346,-531 328.3459,-527.5001 328.346,-534.5001"/>
    </g>
    <!-- 4&#45;&gt;6 -->
    <g id="edge4" class="edge">
      <title>4-&gt;6</title>
      <path fill="none" stroke="#000000" d="M176.5,-485.6714C176.5,-465.4043 176.5,-442.1372 176.5,-424.3831"/>
      <polygon fill="#000000" stroke="#000000" points="180.0001,-424.3746 176.5,-414.3747 173.0001,-424.3747 180.0001,-424.3746"/>
    </g>
    <!-- 5&#45;&gt;7 -->
    <!-- 6&#45;&gt;7 -->
    <g id="edge5" class="edge">
      <title>6-&gt;7</title>
      <path fill="none" stroke="#000000" d="M302.821,-396C311.202,-396 319.6641,-396 328.0915,-396"/>
      <polygon fill="#000000" stroke="#000000" points="328.346,-399.5001 338.346,-396 328.3459,-392.5001 328.346,-399.5001"/>
    </g>
    <!-- 6&#45;&gt;8 -->
    <g id="edge6" class="edge">
      <title>6-&gt;8</title>
      <path fill="none" stroke="#000000" d="M176.5,-377.4582C176.5,-369.9583 176.5,-361.1245 176.5,-352.8217"/>
      <polygon fill="#000000" stroke="#000000" points="180.0001,-352.7292 176.5,-342.7292 173.0001,-352.7292 180.0001,-352.7292"/>
    </g>
    <!-- 7&#45;&gt;9 -->
    <!-- 8&#45;&gt;9 -->
    <g id="edge7" class="edge">
      <title>8-&gt;9</title>
      <path fill="none" stroke="#000000" d="M302.821,-324C311.202,-324 319.6641,-324 328.0915,-324"/>
      <polygon fill="#000000" stroke="#000000" points="328.346,-327.5001 338.346,-324 328.3459,-320.5001 328.346,-327.5001"/>
    </g>
    <!-- 8&#45;&gt;10 -->
    <g id="edge8" class="edge">
      <title>8-&gt;10</title>
      <path fill="none" stroke="#000000" d="M176.5,-305.6198C176.5,-295.5742 176.5,-282.9094 176.5,-271.6023"/>
      <polygon fill="#000000" stroke="#000000" points="180.0001,-271.3074 176.5,-261.3074 173.0001,-271.3074 180.0001,-271.3074"/>
    </g>
    <!-- 9&#45;&gt;11 -->
    <!-- 10&#45;&gt;12 -->
    <g id="edge10" class="edge">
      <title>10-&gt;12</title>
      <path fill="none" stroke="#000000" d="M176.5,-224.4693C176.5,-206.7104 176.5,-179.0091 176.5,-154.148"/>
      <polygon fill="#000000" stroke="#000000" points="180.0001,-154.0672 176.5,-144.0672 173.0001,-154.0673 180.0001,-154.0672"/>
    </g>
    <!-- 10&#45;&gt;C -->
    <g id="edge9" class="edge">
      <title>10-&gt;C</title>
      <path fill="none" stroke="#000000" d="M302.821,-243C311.202,-243 319.6641,-243 328.0915,-243"/>
      <polygon fill="#000000" stroke="#000000" points="328.346,-246.5001 338.346,-243 328.3459,-239.5001 328.346,-246.5001"/>
    </g>
    <!-- 13&#45;&gt;14 -->
    <g id="edge15" class="edge">
      <title>13-&gt;14</title>
      <path fill="none" stroke="#ffffff" d="M874.3156,-611.7028C856.4069,-599.8383 830.4332,-582.6307 807.0661,-567.1501"/>
    </g>
    <!-- 14&#45;&gt;15 -->
    <g id="edge16" class="edge">
      <title>14-&gt;15</title>
      <path fill="none" stroke="#000000" d="M752.5,-494.9434C752.5,-454.4595 752.5,-389.5917 752.5,-352.494"/>
      <polygon fill="#000000" stroke="#000000" points="756.0001,-352.3698 752.5,-342.3699 749.0001,-352.3699 756.0001,-352.3698"/>
    </g>
    <!-- 15&#45;&gt;16 -->
    <g id="edge17" class="edge">
      <title>15-&gt;16</title>
      <path fill="none" stroke="#000000" d="M878.821,-324C887.202,-324 895.6641,-324 904.0915,-324"/>
      <polygon fill="#000000" stroke="#000000" points="904.346,-327.5001 914.346,-324 904.3459,-320.5001 904.346,-327.5001"/>
    </g>
    <!-- 15&#45;&gt;17 -->
    <g id="edge18" class="edge">
      <title>15-&gt;17</title>
      <path fill="none" stroke="#000000" d="M752.5,-305.6198C752.5,-295.5742 752.5,-282.9094 752.5,-271.6023"/>
      <polygon fill="#000000" stroke="#000000" points="756.0001,-271.3074 752.5,-261.3074 749.0001,-271.3074 756.0001,-271.3074"/>
    </g>
    <!-- 16&#45;&gt;18 -->
    <!-- 17&#45;&gt;18 -->
    <g id="edge19" class="edge">
      <title>17-&gt;18</title>
      <path fill="none" stroke="#000000" d="M878.821,-243C887.202,-243 895.6641,-243 904.0915,-243"/>
      <polygon fill="#000000" stroke="#000000" points="904.346,-246.5001 914.346,-243 904.3459,-239.5001 904.346,-246.5001"/>
    </g>
    <!-- 17&#45;&gt;B -->
    <g id="edge20" class="edge">
      <title>17-&gt;B</title>
      <path fill="none" stroke="#000000" d="M752.5,-224.4693C752.5,-187.4003 752.5,-107.0118 752.5,-99.5569"/>
    </g>
    <!-- B&#45;&gt;12 -->
    <g id="edge21" class="edge">
      <title>B-&gt;12</title>
      <path fill="none" stroke="#000000" d="M751.8494,-99C737.2012,-99 478.5171,-99 313.0507,-99"/>
      <polygon fill="#000000" stroke="#000000" points="312.7833,-95.5001 302.7832,-99 312.7832,-102.5001 312.7833,-95.5001"/>
    </g>
    <!-- identification -->
    <g id="node1" class="node">
      <title>identification</title>
      <g id="a_node1">
        <a xlink:title="Blue identification box">
          <path fill="#bcd2ee" stroke="#bcd2ee" d="M19.3333,-594C19.3333,-594 9.6667,-594 9.6667,-594 4.8333,-594 0,-589.1667 0,-584.3333 0,-584.3333 0,-477.6667 0,-477.6667 0,-472.8333 4.8333,-468 9.6667,-468 9.6667,-468 19.3333,-468 19.3333,-468 24.1667,-468 29,-472.8333 29,-477.6667 29,-477.6667 29,-584.3333 29,-584.3333 29,-589.1667 24.1667,-594 19.3333,-594"/>
          <text text-anchor="middle" x="527.4" y="16.5" font-family="Helvetica,sans-Serif" font-size="12.00" fill="#000000" transform="rotate(-90)">IDENTIFICATION</text>
        </a>
      </g>
    </g>
    <!-- screening -->
    <g id="node2" class="node">
      <title>screening</title>
      <g id="a_node2">
        <a xlink:title="Blue screening box">
          <path fill="#bcd2ee" stroke="#bcd2ee" d="M19.3333,-414C19.3333,-414 9.6667,-414 9.6667,-414 4.8333,-414 0,-409.1667 0,-404.3333 0,-404.3333 0,-225.6667 0,-225.6667 0,-220.8333 4.8333,-216 9.6667,-216 9.6667,-216 19.3333,-216 19.3333,-216 24.1667,-216 29,-220.8333 29,-225.6667 29,-225.6667 29,-404.3333 29,-404.3333 29,-409.1667 24.1667,-414 19.3333,-414"/>
          <text text-anchor="middle" x="311.4" y="16.5" font-family="Helvetica,sans-Serif" font-size="12.00" fill="#000000" transform="rotate(-90)">SCREENING</text>
        </a>
      </g>
    </g>
    <!-- included -->
    <g id="node3" class="node">
      <title>included</title>
      <g id="a_node3">
        <a xlink:title="Blue included box">
          <path fill="#bcd2ee" stroke="#bcd2ee" d="M19.3333,-198C19.3333,-198 9.6667,-198 9.6667,-198 4.8333,-198 0,-193.1667 0,-188.3333 0,-188.3333 0,-9.6667 0,-9.6667 0,-4.8333 4.8333,0 9.6667,0 9.6667,0 19.3333,0 19.3333,0 24.1667,0 29,-4.8333 29,-9.6667 29,-9.6667 29,-188.3333 29,-188.3333 29,-193.1667 24.1667,-198 19.3333,-198"/>
          <text text-anchor="middle" x="95.4" y="16.5" font-family="Helvetica,sans-Serif" font-size="12.00" fill="#000000" transform="rotate(-90)">INCLUDED</text>
        </a>
      </g>
    </g>
    <!-- 3 -->
    <g id="node4" class="node">
      <title>3</title>
      <g id="a_node4">
        <a xlink:title="Yellow title box; Identification of new studies via databases and registers">
          <path fill="#ffc125" stroke="#ffc125" d="M580.8333,-640.9C580.8333,-640.9 60.1667,-640.9 60.1667,-640.9 55.3333,-640.9 50.5,-636.0667 50.5,-631.2333 50.5,-631.2333 50.5,-621.5667 50.5,-621.5667 50.5,-616.7333 55.3333,-611.9 60.1667,-611.9 60.1667,-611.9 580.8333,-611.9 580.8333,-611.9 585.6667,-611.9 590.5,-616.7333 590.5,-621.5667 590.5,-621.5667 590.5,-631.2333 590.5,-631.2333 590.5,-636.0667 585.6667,-640.9 580.8333,-640.9"/>
          <text text-anchor="middle" x="320.5" y="-622.8" font-family="Helvetica,sans-Serif" font-size="12.00" fill="#000000">Identification of new studies via databases and registers</text>
        </a>
      </g>
    </g>
    <!-- 4 -->
    <g id="node5" class="node">
      <title>4</title>
      <g id="a_node5">
        <a xlink:title="Records identified from: Databases and Registers">
          <polygon fill="none" stroke="#000000" points="302.5,-576 50.5,-576 50.5,-486 302.5,-486 302.5,-576"/>
          <text text-anchor="middle" x="176.5" y="-556.2" font-family="Helvetica,sans-Serif" font-size="12.00" fill="#000000">Records identified from:</text>
          <text text-anchor="middle" x="176.5" y="-541.8" font-family="Helvetica,sans-Serif" font-size="12.00" fill="#000000">Databases (n = 272):</text>
          <text text-anchor="middle" x="176.5" y="-527.4" font-family="Helvetica,sans-Serif" font-size="12.00" fill="#000000">Scopus (n = 140)</text>
          <text text-anchor="middle" x="176.5" y="-513" font-family="Helvetica,sans-Serif" font-size="12.00" fill="#000000">Web of Science (n = 132)</text>
          <text text-anchor="middle" x="176.5" y="-498.6" font-family="Helvetica,sans-Serif" font-size="12.00" fill="#000000">Registers (n = 0)</text>
        </a>
      </g>
    </g>
    <!-- 5 -->
    <g id="node6" class="node">
      <title>5</title>
      <g id="a_node6">
        <a xlink:title="Duplicate records">
          <polygon fill="none" stroke="#000000" points="590.5,-571 338.5,-571 338.5,-491 590.5,-491 590.5,-571"/>
          <text text-anchor="middle" x="464.5" y="-556.2" font-family="Helvetica,sans-Serif" font-size="12.00" fill="#000000">Records removed before screening:</text>
          <text text-anchor="middle" x="464.5" y="-541.8" font-family="Helvetica,sans-Serif" font-size="12.00" fill="#000000">Duplicate records (n = 0)</text>
          <text text-anchor="middle" x="464.5" y="-527.4" font-family="Helvetica,sans-Serif" font-size="12.00" fill="#000000">Records marked as ineligible by automation</text>
          <text text-anchor="middle" x="464.5" y="-513" font-family="Helvetica,sans-Serif" font-size="12.00" fill="#000000">tools (n = 38)</text>
          <text text-anchor="middle" x="464.5" y="-498.6" font-family="Helvetica,sans-Serif" font-size="12.00" fill="#000000">Records removed for other reasons (n = 86)</text>
        </a>
      </g>
    </g>
    <!-- 6 -->
    <g id="node7" class="node">
      <title>6</title>
      <g id="a_node7">
        <a xlink:title="Records screened (databases and registers)">
          <polygon fill="none" stroke="#000000" points="302.5,-414.3005 50.5,-414.3005 50.5,-377.6995 302.5,-377.6995 302.5,-414.3005"/>
          <text text-anchor="middle" x="176.5" y="-399.6" font-family="Helvetica,sans-Serif" font-size="12.00" fill="#000000">Records screened</text>
          <text text-anchor="middle" x="176.5" y="-385.2" font-family="Helvetica,sans-Serif" font-size="12.00" fill="#000000">(n = 272)</text>
        </a>
      </g>
    </g>
    <!-- 7 -->
    <g id="node8" class="node">
      <title>7</title>
      <g id="a_node8">
        <a xlink:title="Records excluded (databases and registers)">
          <polygon fill="none" stroke="#000000" points="590.5,-414.3005 338.5,-414.3005 338.5,-377.6995 590.5,-377.6995 590.5,-414.3005"/>
          <text text-anchor="middle" x="464.5" y="-399.6" font-family="Helvetica,sans-Serif" font-size="12.00" fill="#000000">Records excluded</text>
          <text text-anchor="middle" x="464.5" y="-385.2" font-family="Helvetica,sans-Serif" font-size="12.00" fill="#000000">(n = 124)</text>
        </a>
      </g>
    </g>
    <!-- 8 -->
    <g id="node9" class="node">
      <title>8</title>
      <g id="a_node9">
        <a xlink:title="Reports sought for retrieval (databases and registers)">
          <polygon fill="none" stroke="#000000" points="302.5,-342.3005 50.5,-342.3005 50.5,-305.6995 302.5,-305.6995 302.5,-342.3005"/>
          <text text-anchor="middle" x="176.5" y="-327.6" font-family="Helvetica,sans-Serif" font-size="12.00" fill="#000000">Reports sought for retrieval</text>
          <text text-anchor="middle" x="176.5" y="-313.2" font-family="Helvetica,sans-Serif" font-size="12.00" fill="#000000">(n = 272)</text>
        </a>
      </g>
    </g>
    <!-- 9 -->
    <g id="node10" class="node">
      <title>9</title>
      <g id="a_node10">
        <a xlink:title="Reports not retrieved (databases and registers)">
          <polygon fill="none" stroke="#000000" points="590.5,-342.3005 338.5,-342.3005 338.5,-305.6995 590.5,-305.6995 590.5,-342.3005"/>
          <text text-anchor="middle" x="464.5" y="-327.6" font-family="Helvetica,sans-Serif" font-size="12.00" fill="#000000">Reports not retrieved</text>
          <text text-anchor="middle" x="464.5" y="-313.2" font-family="Helvetica,sans-Serif" font-size="12.00" fill="#000000">(n = 0)</text>
        </a>
      </g>
    </g>
    <!-- 10 -->
    <g id="node11" class="node">
      <title>10</title>
      <g id="a_node11">
        <a xlink:title="Reports assessed for eligibility (databases and registers)">
          <polygon fill="none" stroke="#000000" points="302.5,-261.3005 50.5,-261.3005 50.5,-224.6995 302.5,-224.6995 302.5,-261.3005"/>
          <text text-anchor="middle" x="176.5" y="-246.6" font-family="Helvetica,sans-Serif" font-size="12.00" fill="#000000">Reports assessed for eligibility</text>
          <text text-anchor="middle" x="176.5" y="-232.2" font-family="Helvetica,sans-Serif" font-size="12.00" fill="#000000">(n = 272)</text>
        </a>
      </g>
    </g>
    <!-- 11 -->
    <g id="node12" class="node">
      <title>11</title>
      <g id="a_node12">
        <a xlink:title="Reports excluded (databases and registers)">
          <polygon fill="#ffffff" stroke="#000000" points="590.5,-268.7004 338.5,-268.7004 338.5,-217.2996 590.5,-217.2996 590.5,-268.7004"/>
          <text text-anchor="middle" x="464.5" y="-253.8" font-family="Helvetica,sans-Serif" font-size="12.00" fill="#000000">Reports excluded:</text>
          <text text-anchor="middle" x="464.5" y="-239.4" font-family="Helvetica,sans-Serif" font-size="12.00" fill="#000000">Low relevance (&lt; 20 pts) (n = 124)</text>
          <text text-anchor="middle" x="464.5" y="-225" font-family="Helvetica,sans-Serif" font-size="12.00" fill="#000000">Excluded articles (n = 0)</text>
        </a>
      </g>
    </g>
    <!-- 12 -->
    <g id="node13" class="node">
      <title>12</title>
      <g id="a_node13">
        <a xlink:title="New studies included in review (Pareto 80/20: 25 studies)">
          <polygon fill="none" stroke="#000000" points="302.5,-144 50.5,-144 50.5,-54 302.5,-54 302.5,-144"/>
          <text text-anchor="middle" x="176.5" y="-124.2" font-family="Helvetica,sans-Serif" font-size="12.00" fill="#000000">New studies included in review (Pareto</text>
          <text text-anchor="middle" x="176.5" y="-109.8" font-family="Helvetica,sans-Serif" font-size="12.00" fill="#000000">80/20: 25 studies)</text>
          <text text-anchor="middle" x="176.5" y="-95.4" font-family="Helvetica,sans-Serif" font-size="12.00" fill="#000000">(n = 148)</text>
          <text text-anchor="middle" x="176.5" y="-81" font-family="Helvetica,sans-Serif" font-size="12.00" fill="#000000">Reports of new included studies</text>
          <text text-anchor="middle" x="176.5" y="-66.6" font-family="Helvetica,sans-Serif" font-size="12.00" fill="#000000">(n = 148)</text>
        </a>
      </g>
    </g>
    <!-- 13 -->
    <g id="node14" class="node">
      <title>13</title>
      <g id="a_node14">
        <a xlink:title="Grey title box; Identification of new studies via other methods">
          <path fill="#dcdcdc" stroke="#dcdcdc" d="M1156.8333,-640.9C1156.8333,-640.9 636.1667,-640.9 636.1667,-640.9 631.3333,-640.9 626.5,-636.0667 626.5,-631.2333 626.5,-631.2333 626.5,-621.5667 626.5,-621.5667 626.5,-616.7333 631.3333,-611.9 636.1667,-611.9 636.1667,-611.9 1156.8333,-611.9 1156.8333,-611.9 1161.6667,-611.9 1166.5,-616.7333 1166.5,-621.5667 1166.5,-621.5667 1166.5,-631.2333 1166.5,-631.2333 1166.5,-636.0667 1161.6667,-640.9 1156.8333,-640.9"/>
          <text text-anchor="middle" x="896.5" y="-622.8" font-family="Helvetica,sans-Serif" font-size="12.00" fill="#000000">Identification of new studies via other methods</text>
        </a>
      </g>
    </g>
    <!-- 14 -->
    <g id="node15" class="node">
      <title>14</title>
      <g id="a_node15">
        <a xlink:title="Records identified from: Websites, Organisations and Citation Searching">
          <polygon fill="#dcdcdc" stroke="#dcdcdc" points="878.5,-567 626.5,-567 626.5,-495 878.5,-495 878.5,-567"/>
          <text text-anchor="middle" x="752.5" y="-549" font-family="Helvetica,sans-Serif" font-size="12.00" fill="#000000">Records identified from:</text>
          <text text-anchor="middle" x="752.5" y="-534.6" font-family="Helvetica,sans-Serif" font-size="12.00" fill="#000000">Websites (n = 0)</text>
          <text text-anchor="middle" x="752.5" y="-520.2" font-family="Helvetica,sans-Serif" font-size="12.00" fill="#000000">Organisations (n = 0)</text>
          <text text-anchor="middle" x="752.5" y="-505.8" font-family="Helvetica,sans-Serif" font-size="12.00" fill="#000000">Citation searching (n = 0)</text>
        </a>
      </g>
    </g>
    <!-- 15 -->
    <g id="node16" class="node">
      <title>15</title>
      <g id="a_node16">
        <a xlink:title="Reports sought for retrieval (other)">
          <polygon fill="#dcdcdc" stroke="#dcdcdc" points="878.5,-342.3005 626.5,-342.3005 626.5,-305.6995 878.5,-305.6995 878.5,-342.3005"/>
          <text text-anchor="middle" x="752.5" y="-327.6" font-family="Helvetica,sans-Serif" font-size="12.00" fill="#000000">Reports sought for retrieval</text>
          <text text-anchor="middle" x="752.5" y="-313.2" font-family="Helvetica,sans-Serif" font-size="12.00" fill="#000000">(n = 0)</text>
        </a>
      </g>
    </g>
    <!-- 16 -->
    <g id="node17" class="node">
      <title>16</title>
      <g id="a_node17">
        <a xlink:title="Reports not retrieved (other)">
          <polygon fill="#dcdcdc" stroke="#dcdcdc" points="1166.5,-342.3005 914.5,-342.3005 914.5,-305.6995 1166.5,-305.6995 1166.5,-342.3005"/>
          <text text-anchor="middle" x="1040.5" y="-327.6" font-family="Helvetica,sans-Serif" font-size="12.00" fill="#000000">Reports not retrieved</text>
          <text text-anchor="middle" x="1040.5" y="-313.2" font-family="Helvetica,sans-Serif" font-size="12.00" fill="#000000">(n = 0)</text>
        </a>
      </g>
    </g>
    <!-- 17 -->
    <g id="node18" class="node">
      <title>17</title>
      <g id="a_node18">
        <a xlink:title="Reports assessed for eligibility (other)">
          <polygon fill="#dcdcdc" stroke="#dcdcdc" points="878.5,-261.3005 626.5,-261.3005 626.5,-224.6995 878.5,-224.6995 878.5,-261.3005"/>
          <text text-anchor="middle" x="752.5" y="-246.6" font-family="Helvetica,sans-Serif" font-size="12.00" fill="#000000">Reports assessed for eligibility</text>
          <text text-anchor="middle" x="752.5" y="-232.2" font-family="Helvetica,sans-Serif" font-size="12.00" fill="#000000">(n = 0)</text>
        </a>
      </g>
    </g>
    <!-- 18 -->
    <g id="node19" class="node">
      <title>18</title>
      <g id="a_node19">
        <a xlink:title="Reports excluded (other)">
          <polygon fill="#dcdcdc" stroke="#dcdcdc" points="1166.5,-261.3005 914.5,-261.3005 914.5,-224.6995 1166.5,-224.6995 1166.5,-261.3005"/>
          <text text-anchor="middle" x="1040.5" y="-246.6" font-family="Helvetica,sans-Serif" font-size="12.00" fill="#000000">Reports excluded:</text>
          <text text-anchor="middle" x="1040.5" y="-232.2" font-family="Helvetica,sans-Serif" font-size="12.00" fill="#000000"> (n = NA)</text>
        </a>
      </g>
    </g>
    <!-- B -->
    <g id="node20" class="node">
      <title>B</title>
      <polygon fill="none" stroke="#ffffff" points="753,-99.5 752,-99.5 752,-98.5 753,-98.5 753,-99.5"/>
    </g>
    <!-- C -->
  </g>
</svg>
