<?xml version="1.0" encoding="UTF-8" standalone="no"?>
<!DOCTYPE svg PUBLIC "-//W3C//DTD SVG 1.1//EN" "http://www.w3.org/Graphics/SVG/1.1/DTD/svg11.dtd">
<!-- Generated by graphviz version 2.40.1 (20161225.0304)
 -->
<!-- Title: TD Pages: 1 -->
<svg xmlns="http://www.w3.org/2000/svg" xmlns:xlink="http://www.w3.org/1999/xlink" width="1175pt" height="631pt" viewBox="0.00 0.00 1174.50 630.90">
  <g id="graph0" class="graph" transform="scale(1 1) rotate(0) translate(4 626.9)">
    <title>TD</title>
    <g id="a_graph0">
      <a xlink:title="Click the boxes for further information">
        <polygon fill="#ffffff" stroke="transparent" points="-4,4 -4,-626.9 1170.5,-626.9 1170.5,4 -4,4"/>
      </a>
    </g>
    <!-- 3&#45;&gt;4 -->
    <!-- 3&#45;&gt;5 -->
    <!-- 4&#45;&gt;5 -->
    <g id="edge3" class="edge">
      <title>4-&gt;5</title>
      <path fill="none" stroke="#000000" d="M302.821,-513C311.202,-513 319.6641,-513 328.0915,-513"/>
      <polygon fill="#000000" stroke="#000000" points="328.346,-516.5001 338.346,-513 328.3459,-509.5001 328.346,-516.5001"/>
    </g>
    <!-- 4&#45;&gt;6 -->
    <g id="edge4" class="edge">
      <title>4-&gt;6</title>
      <path fill="none" stroke="#000000" d="M176.5,-467.6714C176.5,-447.4043 176.5,-424.1372 176.5,-406.3831"/>
      <polygon fill="#000000" stroke="#000000" points="180.0001,-406.3747 176.5,-396.3747 173.0001,-406.3747 180.0001,-406.3747"/>
    </g>
    <!-- 5&#45;&gt;7 -->
    <!-- 6&#45;&gt;7 -->
    <g id="edge5" class="edge">
      <title>6-&gt;7</title>
      <path fill="none" stroke="#000000" d="M302.821,-378C311.202,-378 319.6641,-378 328.0915,-378"/>
      <polygon fill="#000000" stroke="#000000" points="328.346,-381.5001 338.346,-378 328.3459,-374.5001 328.346,-381.5001"/>
    </g>
    <!-- 6&#45;&gt;8 -->
    <g id="edge6" class="edge">
      <title>6-&gt;8</title>
      <path fill="none" stroke="#000000" d="M176.5,-359.4582C176.5,-351.9583 176.5,-343.1245 176.5,-334.8217"/>
      <polygon fill="#000000" stroke="#000000" points="180.0001,-334.7292 176.5,-324.7292 173.0001,-334.7292 180.0001,-334.7292"/>
    </g>
    <!-- 7&#45;&gt;9 -->
    <!-- 8&#45;&gt;9 -->
    <g id="edge7" class="edge">
      <title>8-&gt;9</title>
      <path fill="none" stroke="#000000" d="M302.821,-306C311.202,-306 319.6641,-306 328.0915,-306"/>
      <polygon fill="#000000" stroke="#000000" points="328.346,-309.5001 338.346,-306 328.3459,-302.5001 328.346,-309.5001"/>
    </g>
    <!-- 8&#45;&gt;10 -->
    <g id="edge8" class="edge">
      <title>8-&gt;10</title>
      <path fill="none" stroke="#000000" d="M176.5,-287.6199C176.5,-277.5742 176.5,-264.9094 176.5,-253.6023"/>
      <polygon fill="#000000" stroke="#000000" points="180.0001,-253.3074 176.5,-243.3074 173.0001,-253.3075 180.0001,-253.3074"/>
    </g>
    <!-- 9&#45;&gt;11 -->
    <!-- 10&#45;&gt;12 -->
    <g id="edge10" class="edge">
      <title>10-&gt;12</title>
      <path fill="none" stroke="#000000" d="M176.5,-206.5119C176.5,-188.5038 176.5,-160.3978 176.5,-136.3026"/>
      <polygon fill="#000000" stroke="#000000" points="180.0001,-136.2628 176.5,-126.2628 173.0001,-136.2629 180.0001,-136.2628"/>
    </g>
    <!-- 10&#45;&gt;C -->
    <g id="edge9" class="edge">
      <title>10-&gt;C</title>
      <path fill="none" stroke="#000000" d="M302.821,-225C311.202,-225 319.6641,-225 328.0915,-225"/>
      <polygon fill="#000000" stroke="#000000" points="328.346,-228.5001 338.346,-225 328.3459,-221.5001 328.346,-228.5001"/>
    </g>
    <!-- 13&#45;&gt;14 -->
    <g id="edge15" class="edge">
      <title>13-&gt;14</title>
      <path fill="none" stroke="#ffffff" d="M874.3156,-593.7028C856.4069,-581.8383 830.4332,-564.6307 807.0661,-549.1501"/>
    </g>
    <!-- 14&#45;&gt;15 -->
    <g id="edge16" class="edge">
      <title>14-&gt;15</title>
      <path fill="none" stroke="#000000" d="M752.5,-476.9434C752.5,-436.4595 752.5,-371.5917 752.5,-334.494"/>
      <polygon fill="#000000" stroke="#000000" points="756.0001,-334.3698 752.5,-324.3699 749.0001,-334.3699 756.0001,-334.3698"/>
    </g>
    <!-- 15&#45;&gt;16 -->
    <g id="edge17" class="edge">
      <title>15-&gt;16</title>
      <path fill="none" stroke="#000000" d="M878.821,-306C887.202,-306 895.6641,-306 904.0915,-306"/>
      <polygon fill="#000000" stroke="#000000" points="904.346,-309.5001 914.346,-306 904.3459,-302.5001 904.346,-309.5001"/>
    </g>
    <!-- 15&#45;&gt;17 -->
    <g id="edge18" class="edge">
      <title>15-&gt;17</title>
      <path fill="none" stroke="#000000" d="M752.5,-287.6199C752.5,-277.5742 752.5,-264.9094 752.5,-253.6023"/>
      <polygon fill="#000000" stroke="#000000" points="756.0001,-253.3074 752.5,-243.3074 749.0001,-253.3075 756.0001,-253.3074"/>
    </g>
    <!-- 16&#45;&gt;18 -->
    <!-- 17&#45;&gt;18 -->
    <g id="edge19" class="edge">
      <title>17-&gt;18</title>
      <path fill="none" stroke="#000000" d="M878.821,-225C887.202,-225 895.6641,-225 904.0915,-225"/>
      <polygon fill="#000000" stroke="#000000" points="904.346,-228.5001 914.346,-225 904.3459,-221.5001 904.346,-228.5001"/>
    </g>
    <!-- 17&#45;&gt;B -->
    <g id="edge20" class="edge">
      <title>17-&gt;B</title>
      <path fill="none" stroke="#000000" d="M752.5,-206.5119C752.5,-171.2719 752.5,-97.3632 752.5,-90.5117"/>
    </g>
    <!-- B&#45;&gt;12 -->
    <g id="edge21" class="edge">
      <title>B-&gt;12</title>
      <path fill="none" stroke="#000000" d="M751.8494,-90C737.2012,-90 478.5171,-90 313.0507,-90"/>
      <polygon fill="#000000" stroke="#000000" points="312.7833,-86.5001 302.7832,-90 312.7832,-93.5001 312.7833,-86.5001"/>
    </g>
    <!-- identification -->
    <g id="node1" class="node">
      <title>identification</title>
      <g id="a_node1">
        <a xlink:title="Blue identification box">
          <path fill="#bcd2ee" stroke="#bcd2ee" d="M19.3333,-576C19.3333,-576 9.6667,-576 9.6667,-576 4.8333,-576 0,-571.1667 0,-566.3333 0,-566.3333 0,-459.6667 0,-459.6667 0,-454.8333 4.8333,-450 9.6667,-450 9.6667,-450 19.3333,-450 19.3333,-450 24.1667,-450 29,-454.8333 29,-459.6667 29,-459.6667 29,-566.3333 29,-566.3333 29,-571.1667 24.1667,-576 19.3333,-576"/>
          <text text-anchor="middle" x="509.4" y="16.5" font-family="Helvetica,sans-Serif" font-size="12.00" fill="#000000" transform="rotate(-90)">IDENTIFICAÇÃO</text>
        </a>
      </g>
    </g>
    <!-- screening -->
    <g id="node2" class="node">
      <title>screening</title>
      <g id="a_node2">
        <a xlink:title="Blue screening box">
          <path fill="#bcd2ee" stroke="#bcd2ee" d="M19.3333,-396C19.3333,-396 9.6667,-396 9.6667,-396 4.8333,-396 0,-391.1667 0,-386.3333 0,-386.3333 0,-207.6667 0,-207.6667 0,-202.8333 4.8333,-198 9.6667,-198 9.6667,-198 19.3333,-198 19.3333,-198 24.1667,-198 29,-202.8333 29,-207.6667 29,-207.6667 29,-386.3333 29,-386.3333 29,-391.1667 24.1667,-396 19.3333,-396"/>
          <text text-anchor="middle" x="293.4" y="16.5" font-family="Helvetica,sans-Serif" font-size="12.00" fill="#000000" transform="rotate(-90)">TRIAGEM</text>
        </a>
      </g>
    </g>
    <!-- included -->
    <g id="node3" class="node">
      <title>included</title>
      <g id="a_node3">
        <a xlink:title="Blue included box">
          <path fill="#bcd2ee" stroke="#bcd2ee" d="M19.3333,-180C19.3333,-180 9.6667,-180 9.6667,-180 4.8333,-180 0,-175.1667 0,-170.3333 0,-170.3333 0,-9.6667 0,-9.6667 0,-4.8333 4.8333,0 9.6667,0 9.6667,0 19.3333,0 19.3333,0 24.1667,0 29,-4.8333 29,-9.6667 29,-9.6667 29,-170.3333 29,-170.3333 29,-175.1667 24.1667,-180 19.3333,-180"/>
          <text text-anchor="middle" x="86.4" y="16.5" font-family="Helvetica,sans-Serif" font-size="12.00" fill="#000000" transform="rotate(-90)">INCLUSÃO</text>
        </a>
      </g>
    </g>
    <!-- 3 -->
    <g id="node4" class="node">
      <title>3</title>
      <g id="a_node4">
        <a xlink:title="Yellow title box; Identification of new studies via databases and registers">
          <path fill="#ffc125" stroke="#ffc125" d="M580.8333,-622.9C580.8333,-622.9 60.1667,-622.9 60.1667,-622.9 55.3333,-622.9 50.5,-618.0667 50.5,-613.2333 50.5,-613.2333 50.5,-603.5667 50.5,-603.5667 50.5,-598.7333 55.3333,-593.9 60.1667,-593.9 60.1667,-593.9 580.8333,-593.9 580.8333,-593.9 585.6667,-593.9 590.5,-598.7333 590.5,-603.5667 590.5,-603.5667 590.5,-613.2333 590.5,-613.2333 590.5,-618.0667 585.6667,-622.9 580.8333,-622.9"/>
          <text text-anchor="middle" x="320.5" y="-604.8" font-family="Helvetica,sans-Serif" font-size="12.00" fill="#000000">Identification of new studies via databases and registers</text>
        </a>
      </g>
    </g>
    <!-- 4 -->
    <g id="node5" class="node">
      <title>4</title>
      <g id="a_node5">
        <a xlink:title="Records identified from: Databases and Registers">
          <polygon fill="none" stroke="#000000" points="302.5,-558 50.5,-558 50.5,-468 302.5,-468 302.5,-558"/>
          <text text-anchor="middle" x="176.5" y="-538.2" font-family="Helvetica,sans-Serif" font-size="12.00" fill="#000000">Records identified from:</text>
          <text text-anchor="middle" x="176.5" y="-523.8" font-family="Helvetica,sans-Serif" font-size="12.00" fill="#000000">Databases (n = 272):</text>
          <text text-anchor="middle" x="176.5" y="-509.4" font-family="Helvetica,sans-Serif" font-size="12.00" fill="#000000">Scopus (n = 140)</text>
          <text text-anchor="middle" x="176.5" y="-495" font-family="Helvetica,sans-Serif" font-size="12.00" fill="#000000">Web of Science (n = 132)</text>
          <text text-anchor="middle" x="176.5" y="-480.6" font-family="Helvetica,sans-Serif" font-size="12.00" fill="#000000">Registers (n = 0)</text>
        </a>
      </g>
    </g>
    <!-- 5 -->
    <g id="node6" class="node">
      <title>5</title>
      <g id="a_node6">
        <a xlink:title="Duplicate records">
          <polygon fill="none" stroke="#000000" points="590.5,-553 338.5,-553 338.5,-473 590.5,-473 590.5,-553"/>
          <text text-anchor="middle" x="464.5" y="-538.2" font-family="Helvetica,sans-Serif" font-size="12.00" fill="#000000">Records removed before screening:</text>
          <text text-anchor="middle" x="464.5" y="-523.8" font-family="Helvetica,sans-Serif" font-size="12.00" fill="#000000">Duplicate records (n = 0)</text>
          <text text-anchor="middle" x="464.5" y="-509.4" font-family="Helvetica,sans-Serif" font-size="12.00" fill="#000000">Records marked as ineligible by automation</text>
          <text text-anchor="middle" x="464.5" y="-495" font-family="Helvetica,sans-Serif" font-size="12.00" fill="#000000">tools (n = 38)</text>
          <text text-anchor="middle" x="464.5" y="-480.6" font-family="Helvetica,sans-Serif" font-size="12.00" fill="#000000">Records removed for other reasons (n = 86)</text>
        </a>
      </g>
    </g>
    <!-- 6 -->
    <g id="node7" class="node">
      <title>6</title>
      <g id="a_node7">
        <a xlink:title="Records screened (databases and registers)">
          <polygon fill="none" stroke="#000000" points="302.5,-396.3005 50.5,-396.3005 50.5,-359.6995 302.5,-359.6995 302.5,-396.3005"/>
          <text text-anchor="middle" x="176.5" y="-381.6" font-family="Helvetica,sans-Serif" font-size="12.00" fill="#000000">Records screened</text>
          <text text-anchor="middle" x="176.5" y="-367.2" font-family="Helvetica,sans-Serif" font-size="12.00" fill="#000000">(n = 272)</text>
        </a>
      </g>
    </g>
    <!-- 7 -->
    <g id="node8" class="node">
      <title>7</title>
      <g id="a_node8">
        <a xlink:title="Records excluded (databases and registers)">
          <polygon fill="none" stroke="#000000" points="590.5,-396.3005 338.5,-396.3005 338.5,-359.6995 590.5,-359.6995 590.5,-396.3005"/>
          <text text-anchor="middle" x="464.5" y="-381.6" font-family="Helvetica,sans-Serif" font-size="12.00" fill="#000000">Records excluded</text>
          <text text-anchor="middle" x="464.5" y="-367.2" font-family="Helvetica,sans-Serif" font-size="12.00" fill="#000000">(n = 124)</text>
        </a>
      </g>
    </g>
    <!-- 8 -->
    <g id="node9" class="node">
      <title>8</title>
      <g id="a_node9">
        <a xlink:title="Reports sought for retrieval (databases and registers)">
          <polygon fill="none" stroke="#000000" points="302.5,-324.3005 50.5,-324.3005 50.5,-287.6995 302.5,-287.6995 302.5,-324.3005"/>
          <text text-anchor="middle" x="176.5" y="-309.6" font-family="Helvetica,sans-Serif" font-size="12.00" fill="#000000">Reports sought for retrieval</text>
          <text text-anchor="middle" x="176.5" y="-295.2" font-family="Helvetica,sans-Serif" font-size="12.00" fill="#000000">(n = 272)</text>
        </a>
      </g>
    </g>
    <!-- 9 -->
    <g id="node10" class="node">
      <title>9</title>
      <g id="a_node10">
        <a xlink:title="Reports not retrieved (databases and registers)">
          <polygon fill="none" stroke="#000000" points="590.5,-324.3005 338.5,-324.3005 338.5,-287.6995 590.5,-287.6995 590.5,-324.3005"/>
          <text text-anchor="middle" x="464.5" y="-309.6" font-family="Helvetica,sans-Serif" font-size="12.00" fill="#000000">Reports not retrieved</text>
          <text text-anchor="middle" x="464.5" y="-295.2" font-family="Helvetica,sans-Serif" font-size="12.00" fill="#000000">(n = 0)</text>
        </a>
      </g>
    </g>
    <!-- 10 -->
    <g id="node11" class="node">
      <title>10</title>
      <g id="a_node11">
        <a xlink:title="Reports assessed for eligibility (databases and registers)">
          <polygon fill="none" stroke="#000000" points="302.5,-243.3005 50.5,-243.3005 50.5,-206.6995 302.5,-206.6995 302.5,-243.3005"/>
          <text text-anchor="middle" x="176.5" y="-228.6" font-family="Helvetica,sans-Serif" font-size="12.00" fill="#000000">Reports assessed for eligibility</text>
          <text text-anchor="middle" x="176.5" y="-214.2" font-family="Helvetica,sans-Serif" font-size="12.00" fill="#000000">(n = 272)</text>
        </a>
      </g>
    </g>
    <!-- 11 -->
    <g id="node12" class="node">
      <title>11</title>
      <g id="a_node12">
        <a xlink:title="Reports excluded (databases and registers)">
          <polygon fill="#ffffff" stroke="#000000" points="590.5,-250.7004 338.5,-250.7004 338.5,-199.2996 590.5,-199.2996 590.5,-250.7004"/>
          <text text-anchor="middle" x="464.5" y="-235.8" font-family="Helvetica,sans-Serif" font-size="12.00" fill="#000000">Reports excluded:</text>
          <text text-anchor="middle" x="464.5" y="-221.4" font-family="Helvetica,sans-Serif" font-size="12.00" fill="#000000">Baixa relevância (&lt; 20 pts) (n = 124)</text>
          <text text-anchor="middle" x="464.5" y="-207" font-family="Helvetica,sans-Serif" font-size="12.00" fill="#000000">Artigos excluídos (n = 0)</text>
        </a>
      </g>
    </g>
    <!-- 12 -->
    <g id="node13" class="node">
      <title>12</title>
      <g id="a_node13">
        <a xlink:title="New studies included in review">
          <polygon fill="none" stroke="#000000" points="302.5,-126 50.5,-126 50.5,-54 302.5,-54 302.5,-126"/>
          <text text-anchor="middle" x="176.5" y="-108" font-family="Helvetica,sans-Serif" font-size="12.00" fill="#000000">New studies included in review</text>
          <text text-anchor="middle" x="176.5" y="-93.6" font-family="Helvetica,sans-Serif" font-size="12.00" fill="#000000">(n = 148)</text>
          <text text-anchor="middle" x="176.5" y="-79.2" font-family="Helvetica,sans-Serif" font-size="12.00" fill="#000000">Reports of new included studies</text>
          <text text-anchor="middle" x="176.5" y="-64.8" font-family="Helvetica,sans-Serif" font-size="12.00" fill="#000000">(n = 148)</text>
        </a>
      </g>
    </g>
    <!-- 13 -->
    <g id="node14" class="node">
      <title>13</title>
      <g id="a_node14">
        <a xlink:title="Grey title box; Identification of new studies via other methods">
          <path fill="#dcdcdc" stroke="#dcdcdc" d="M1156.8333,-622.9C1156.8333,-622.9 636.1667,-622.9 636.1667,-622.9 631.3333,-622.9 626.5,-618.0667 626.5,-613.2333 626.5,-613.2333 626.5,-603.5667 626.5,-603.5667 626.5,-598.7333 631.3333,-593.9 636.1667,-593.9 636.1667,-593.9 1156.8333,-593.9 1156.8333,-593.9 1161.6667,-593.9 1166.5,-598.7333 1166.5,-603.5667 1166.5,-603.5667 1166.5,-613.2333 1166.5,-613.2333 1166.5,-618.0667 1161.6667,-622.9 1156.8333,-622.9"/>
          <text text-anchor="middle" x="896.5" y="-604.8" font-family="Helvetica,sans-Serif" font-size="12.00" fill="#000000">Identification of new studies via other methods</text>
        </a>
      </g>
    </g>
    <!-- 14 -->
    <g id="node15" class="node">
      <title>14</title>
      <g id="a_node15">
        <a xlink:title="Records identified from: Websites, Organisations and Citation Searching">
          <polygon fill="#dcdcdc" stroke="#dcdcdc" points="878.5,-549 626.5,-549 626.5,-477 878.5,-477 878.5,-549"/>
          <text text-anchor="middle" x="752.5" y="-531" font-family="Helvetica,sans-Serif" font-size="12.00" fill="#000000">Records identified from:</text>
          <text text-anchor="middle" x="752.5" y="-516.6" font-family="Helvetica,sans-Serif" font-size="12.00" fill="#000000">Websites (n = 0)</text>
          <text text-anchor="middle" x="752.5" y="-502.2" font-family="Helvetica,sans-Serif" font-size="12.00" fill="#000000">Organisations (n = 0)</text>
          <text text-anchor="middle" x="752.5" y="-487.8" font-family="Helvetica,sans-Serif" font-size="12.00" fill="#000000">Citation searching (n = 0)</text>
        </a>
      </g>
    </g>
    <!-- 15 -->
    <g id="node16" class="node">
      <title>15</title>
      <g id="a_node16">
        <a xlink:title="Reports sought for retrieval (other)">
          <polygon fill="#dcdcdc" stroke="#dcdcdc" points="878.5,-324.3005 626.5,-324.3005 626.5,-287.6995 878.5,-287.6995 878.5,-324.3005"/>
          <text text-anchor="middle" x="752.5" y="-309.6" font-family="Helvetica,sans-Serif" font-size="12.00" fill="#000000">Reports sought for retrieval</text>
          <text text-anchor="middle" x="752.5" y="-295.2" font-family="Helvetica,sans-Serif" font-size="12.00" fill="#000000">(n = 0)</text>
        </a>
      </g>
    </g>
    <!-- 16 -->
    <g id="node17" class="node">
      <title>16</title>
      <g id="a_node17">
        <a xlink:title="Reports not retrieved (other)">
          <polygon fill="#dcdcdc" stroke="#dcdcdc" points="1166.5,-324.3005 914.5,-324.3005 914.5,-287.6995 1166.5,-287.6995 1166.5,-324.3005"/>
          <text text-anchor="middle" x="1040.5" y="-309.6" font-family="Helvetica,sans-Serif" font-size="12.00" fill="#000000">Reports not retrieved</text>
          <text text-anchor="middle" x="1040.5" y="-295.2" font-family="Helvetica,sans-Serif" font-size="12.00" fill="#000000">(n = 0)</text>
        </a>
      </g>
    </g>
    <!-- 17 -->
    <g id="node18" class="node">
      <title>17</title>
      <g id="a_node18">
        <a xlink:title="Reports assessed for eligibility (other)">
          <polygon fill="#dcdcdc" stroke="#dcdcdc" points="878.5,-243.3005 626.5,-243.3005 626.5,-206.6995 878.5,-206.6995 878.5,-243.3005"/>
          <text text-anchor="middle" x="752.5" y="-228.6" font-family="Helvetica,sans-Serif" font-size="12.00" fill="#000000">Reports assessed for eligibility</text>
          <text text-anchor="middle" x="752.5" y="-214.2" font-family="Helvetica,sans-Serif" font-size="12.00" fill="#000000">(n = 0)</text>
        </a>
      </g>
    </g>
    <!-- 18 -->
    <g id="node19" class="node">
      <title>18</title>
      <g id="a_node19">
        <a xlink:title="Reports excluded (other)">
          <polygon fill="#dcdcdc" stroke="#dcdcdc" points="1166.5,-243.3005 914.5,-243.3005 914.5,-206.6995 1166.5,-206.6995 1166.5,-243.3005"/>
          <text text-anchor="middle" x="1040.5" y="-228.6" font-family="Helvetica,sans-Serif" font-size="12.00" fill="#000000">Reports excluded:</text>
          <text text-anchor="middle" x="1040.5" y="-214.2" font-family="Helvetica,sans-Serif" font-size="12.00" fill="#000000"> (n = NA)</text>
        </a>
      </g>
    </g>
    <!-- B -->
    <g id="node20" class="node">
      <title>B</title>
      <polygon fill="none" stroke="#ffffff" points="753,-90.5 752,-90.5 752,-89.5 753,-89.5 753,-90.5"/>
    </g>
    <!-- C -->
  </g>
</svg>
